<svg xmlns="http://www.w3.org/2000/svg" version="1.1" xmlns:xlink="http://www.w3.org/1999/xlink" xmlns:svgjs="http://svgjs.com/svgjs" width="512" height="512"><svg width="512" height="512" viewBox="0 0 512 512" version="1.1" id="SvgjsSvg1006" inkscape:version="1.1 (c68e22c387, 2021-05-23)" sodipodi:docname="Code-dark.svg" inkscape:export-filename="G:\Other computers\My computer\XCWalker.dev\Icons\Acron.png" inkscape:export-xdpi="48" inkscape:export-ydpi="48" xmlns:inkscape="http://www.inkscape.org/namespaces/inkscape" xmlns:sodipodi="http://sodipodi.sourceforge.net/DTD/sodipodi-0.dtd" xmlns="http://www.w3.org/2000/svg" xmlns:svg="http://www.w3.org/2000/svg">
  <sodipodi:namedview id="SvgjsSodipodi:namedview1005" pagecolor="#505050" bordercolor="#ffffff" borderopacity="1" inkscape:pageshadow="0" inkscape:pageopacity="0" inkscape:pagecheckerboard="1" inkscape:document-units="px" showgrid="false" inkscape:zoom="0.80371094" inkscape:cx="153.66221" inkscape:cy="207.16403" inkscape:window-width="1440" inkscape:window-height="837" inkscape:window-x="-8" inkscape:window-y="-8" inkscape:window-maximized="1" inkscape:current-layer="layer2"></sodipodi:namedview>
  <defs id="SvgjsDefs1004"></defs>
  <g inkscape:label="Background" inkscape:groupmode="layer" id="SvgjsG1003">
    <rect style="font-variation-settings:'wght' 700;fill:#ffa600;fill-opacity:1;stroke-width:0.5" id="SvgjsRect1002" width="512" height="512" x="0" y="0" rx="100" ry="100"></rect>
  </g>
  <g inkscape:groupmode="layer" id="SvgjsG1001" inkscape:label="Txt">
    <path id="SvgjsPath1000" style="font-weight:bold;font-size:320.625px;line-height:1;font-family:Montserrat;-inkscape-font-specification:'Montserrat Bold';text-align:center;text-anchor:middle;stroke-width:0.916067" d="M 169.69141 139.93359 C 152.16391 139.93359 136.02609 142.8186 121.27734 148.58984 C 106.52859 154.14734 93.595469 162.16297 82.480469 172.63672 C 71.579219 183.11047 63.030781 195.40227 56.832031 209.50977 C 50.847031 223.61727 47.853516 239.11375 47.853516 256 C 47.853516 272.88625 50.847031 288.38273 56.832031 302.49023 C 63.030781 316.59773 71.579219 328.88953 82.480469 339.36328 C 93.381719 349.83703 106.20828 357.95922 120.95703 363.73047 C 135.91953 369.28797 152.05734 372.06641 169.37109 372.06641 C 189.03609 372.06641 206.66969 368.64664 222.27344 361.80664 C 238.09094 354.96664 251.34375 345.02703 262.03125 331.98828 L 228.68555 301.20898 C 220.99055 310.18648 212.44211 316.91945 203.03711 321.4082 C 193.63211 325.6832 183.37086 327.82031 172.25586 327.82031 C 161.78211 327.82031 152.16414 326.10945 143.40039 322.68945 C 134.63664 319.26945 127.04727 314.35391 120.63477 307.94141 C 114.22227 301.52891 109.20016 293.94149 105.56641 285.17773 C 102.14641 276.41399 100.43555 266.6875 100.43555 256 C 100.43555 245.3125 102.14641 235.58602 105.56641 226.82227 C 109.20016 218.05852 114.22227 210.47109 120.63477 204.05859 C 127.04727 197.64609 134.63664 192.73055 143.40039 189.31055 C 152.16414 185.89055 161.78211 184.17969 172.25586 184.17969 C 183.37086 184.17969 193.63211 186.42532 203.03711 190.91406 C 212.44211 195.18906 220.99055 201.70695 228.68555 210.4707 L 262.03125 179.69141 C 251.34375 166.65265 238.09094 156.81961 222.27344 150.19336 C 206.66969 143.35336 189.14266 139.93359 169.69141 139.93359 z M 369.5625 193.1582 C 351.18 193.1582 334.82711 197.00422 320.50586 204.69922 C 306.39836 212.18047 295.17609 222.65484 286.83984 236.12109 C 278.71734 249.37359 274.65625 264.65696 274.65625 281.9707 C 274.65625 299.07071 278.71734 314.35407 286.83984 327.82031 C 295.17609 341.07281 306.39836 351.54719 320.50586 359.24219 C 334.82711 366.93719 351.18 370.7832 369.5625 370.7832 C 387.73125 370.7832 403.97562 366.93719 418.29688 359.24219 C 432.61812 351.54719 443.84039 341.07281 451.96289 327.82031 C 460.08539 314.35407 464.14648 299.07071 464.14648 281.9707 C 464.14648 264.4432 460.08539 249.05328 451.96289 235.80078 C 443.84039 222.54828 432.61812 212.18047 418.29688 204.69922 C 403.97562 197.00422 387.73125 193.1582 369.5625 193.1582 z M 369.5625 234.19727 C 377.89875 234.19727 385.37961 236.12125 392.00586 239.96875 C 398.63211 243.81625 403.8693 249.26657 407.7168 256.32031 C 411.5643 263.37407 413.48828 271.92446 413.48828 281.9707 C 413.48828 291.80321 411.5643 300.35359 407.7168 307.62109 C 403.8693 314.67484 398.63211 320.12516 392.00586 323.97266 C 385.37961 327.82016 377.89875 329.74414 369.5625 329.74414 C 361.22625 329.74414 353.74343 327.82016 347.11719 323.97266 C 340.49093 320.12516 335.14718 314.67484 331.08594 307.62109 C 327.23844 300.35359 325.31641 291.80321 325.31641 281.9707 C 325.31641 271.92446 327.23844 263.37407 331.08594 256.32031 C 335.14718 249.26657 340.49093 243.81625 347.11719 239.96875 C 353.74343 236.12125 361.22625 234.19727 369.5625 234.19727 z "></path>
  </g>
</svg><style>@media (prefers-color-scheme: light) { :root { filter: none; } }
</style></svg>