<svg xmlns="http://www.w3.org/2000/svg" version="1.1" xmlns:xlink="http://www.w3.org/1999/xlink" xmlns:svgjs="http://svgjs.com/svgjs" width="512" height="512"><svg width="512" height="512" viewBox="0 0 135.46667 135.46667" version="1.1" id="SvgjsSvg1006" inkscape:version="1.1 (c68e22c387, 2021-05-23)" sodipodi:docname="Icon.svg" xmlns:inkscape="http://www.inkscape.org/namespaces/inkscape" xmlns:sodipodi="http://sodipodi.sourceforge.net/DTD/sodipodi-0.dtd" xmlns="http://www.w3.org/2000/svg" xmlns:svg="http://www.w3.org/2000/svg">
  <sodipodi:namedview id="SvgjsSodipodi:namedview1005" pagecolor="#505050" bordercolor="#ffffff" borderopacity="1" inkscape:pageshadow="0" inkscape:pageopacity="0" inkscape:pagecheckerboard="1" inkscape:document-units="px" showgrid="false" inkscape:zoom="2.1517038" inkscape:cx="303.24805" inkscape:cy="266.06822" inkscape:window-width="2560" inkscape:window-height="1537" inkscape:window-x="992" inkscape:window-y="-8" inkscape:window-maximized="1" inkscape:current-layer="layer1"></sodipodi:namedview>
  <defs id="SvgjsDefs1004"></defs>
  <g inkscape:label="Layer 1" inkscape:groupmode="layer" id="SvgjsG1003" transform="translate(1.0538419)">
    <g id="SvgjsG1002" transform="matrix(1.0012757,0,0,1.0012757,-1.0538401,-1.2105093)">
      <path id="SvgjsPath1001" style="color:#000000;-inkscape-font-specification:'Montserrat Semi-Bold';fill:#ffffff;stroke-width:0.999999px;-inkscape-stroke:none" d="M 199.39844,120.70898 0,624.22266 h 108.26953 c 0,0 97.11971,-247.65812 197.71875,-503.51368 z" transform="matrix(0.26458334,0,0,0.26458334,0,-29.692246)"></path>
      <path style="color:#000000;-inkscape-font-specification:'Montserrat Semi-Bold';fill:#ffffff;stroke-width:0.999999px;-inkscape-stroke:none" d="m 335.74805,69.337891 c -23.24601,59.136439 -32.53827,82.753749 -53.23243,135.462889 12.50815,31.86135 28.78142,73.20806 39.85157,101.42188 H 242.7207 c -12.74452,32.49028 -22.47829,57.27486 -31.47461,80.22265 H 353.85547 C 383.48246,461.98762 403.07813,512 403.07812,512 h 3.91407 104.35547 C 452.71659,364.48313 394.13409,216.94947 335.74805,69.337891 Z" id="SvgjsPath1000" transform="scale(0.26458334)"></path>
    </g>
  </g>
</svg><style>@media (prefers-color-scheme: light) { :root { filter: contrast(1) brightness(0.1); } }
@media (prefers-color-scheme: dark) { :root { filter: none; } }
</style></svg>