<?xml version="1.0" standalone="no"?>
<!DOCTYPE svg PUBLIC "-//W3C//DTD SVG 20010904//EN"
 "http://www.w3.org/TR/2001/REC-SVG-20010904/DTD/svg10.dtd">
<svg version="1.0" xmlns="http://www.w3.org/2000/svg"
 width="700.000000pt" height="700.000000pt" viewBox="0 0 700.000000 700.000000"
 preserveAspectRatio="xMidYMid meet">
<metadata>
Created by potrace 1.14, written by Peter Selinger 2001-2017
</metadata>
<g transform="translate(0.000000,700.000000) scale(0.100000,-0.100000)"
fill="#000000" stroke="none">
<path d="M2712 6901 c-11 -25 -43 -107 -72 -181 -29 -74 -59 -148 -66 -165 -7
-16 -28 -70 -48 -120 -50 -130 -365 -926 -375 -950 -5 -11 -60 -148 -121 -305
-61 -157 -115 -294 -120 -305 -5 -11 -62 -153 -125 -315 -64 -162 -120 -304
-125 -315 -5 -11 -53 -130 -106 -265 -89 -227 -226 -575 -255 -645 -7 -16 -13
-32 -13 -35 -1 -3 -56 -142 -123 -310 -66 -168 -180 -456 -253 -640 -72 -184
-136 -344 -141 -355 -5 -11 -40 -101 -79 -200 -39 -99 -75 -189 -80 -200 -5
-11 -19 -47 -31 -80 -12 -33 -25 -64 -30 -70 -5 -5 -9 -15 -9 -22 0 -7 -9 -32
-19 -56 -11 -23 -61 -148 -111 -277 -216 -549 -381 -967 -395 -998 -8 -18 -15
-34 -15 -36 0 -1 334 -2 741 -2 l741 1 84 215 c47 118 88 224 93 235 10 21
146 369 206 525 20 52 40 104 45 115 5 11 19 45 30 75 11 30 25 64 30 75 4 11
44 112 88 225 115 293 182 465 245 625 30 77 150 383 267 680 116 297 231 590
255 650 130 331 179 456 239 610 36 94 71 178 76 187 6 10 10 23 10 28 0 6 8
30 19 53 10 23 103 258 206 522 103 264 193 494 200 510 7 17 29 71 48 120 19
50 60 155 92 235 31 80 102 260 157 400 172 438 248 632 279 707 16 39 29 78
29 86 0 11 -111 14 -724 13 l-724 0 -20 -45z"/>
<path d="M4583 6082 c-6 -15 -25 -65 -43 -112 -18 -47 -38 -98 -45 -115 -7
-16 -25 -61 -40 -100 -32 -83 -512 -1306 -556 -1417 -32 -78 -32 -90 -3 -153
11 -26 287 -726 429 -1090 25 -66 55 -141 66 -167 10 -26 19 -49 19 -52 0 -3
-245 -6 -544 -6 l-543 0 -66 -167 c-36 -93 -105 -267 -152 -388 -48 -121 -113
-288 -146 -370 -32 -83 -59 -156 -59 -162 0 -8 270 -11 971 -11 533 0 972 -1
973 -3 2 -2 35 -87 75 -189 39 -102 76 -194 81 -205 5 -11 41 -103 80 -205 39
-102 76 -194 80 -205 5 -11 46 -114 90 -230 45 -115 85 -219 90 -230 5 -11 19
-45 30 -75 12 -30 26 -64 30 -75 5 -11 33 -83 63 -160 l55 -140 741 -1 c407 0
741 0 741 1 0 3 -72 183 -80 200 -5 11 -44 108 -86 215 -42 107 -81 206 -87
220 -6 14 -11 27 -12 30 -1 3 -5 14 -10 25 -5 11 -30 74 -56 140 -26 66 -104
264 -174 440 -70 176 -156 394 -192 485 -36 91 -71 179 -78 195 -7 17 -81 203
-165 415 -83 212 -156 394 -161 405 -9 22 -125 313 -184 465 -20 52 -43 109
-50 125 -7 17 -84 210 -170 430 -87 220 -163 414 -170 430 -15 35 -78 195
-240 605 -63 162 -120 304 -125 315 -5 11 -88 220 -185 465 -97 245 -178 446
-179 447 -1 1 -7 -10 -13 -25z"/>
</g>
</svg>
