<?xml version="1.0" standalone="no"?>
<!DOCTYPE svg PUBLIC "-//W3C//DTD SVG 20010904//EN"
 "http://www.w3.org/TR/2001/REC-SVG-20010904/DTD/svg10.dtd">
<svg version="1.0" xmlns="http://www.w3.org/2000/svg"
 width="700.000000pt" height="700.000000pt" viewBox="0 0 700.000000 700.000000"
 preserveAspectRatio="xMidYMid meet">
<metadata>
Created by potrace 1.14, written by Peter Selinger 2001-2017
</metadata>
<g transform="translate(0.000000,700.000000) scale(0.100000,-0.100000)"
fill="#000000" stroke="none">
<path d="M1755 5434 c-715 -96 -1265 -470 -1557 -1055 -69 -139 -128 -306
-153 -434 -33 -170 -40 -242 -40 -440 0 -168 6 -257 24 -366 102 -613 513
-1140 1096 -1406 155 -71 404 -141 560 -158 28 -4 61 -9 75 -12 46 -10 454
-12 545 -2 236 24 488 93 680 184 85 41 227 121 260 147 6 4 44 34 85 67 88
69 172 147 230 215 l42 49 -40 36 c-112 103 -228 210 -261 241 -21 19 -80 73
-131 120 -52 47 -101 93 -109 102 -14 16 -22 11 -106 -71 -181 -176 -333 -265
-555 -322 -178 -46 -452 -45 -639 2 -287 72 -511 227 -671 461 -145 214 -204
424 -204 718 2 545 297 971 786 1133 231 77 529 84 760 18 202 -58 392 -174
556 -340 l53 -53 27 23 c15 13 49 45 77 71 27 25 64 59 81 75 81 74 255 234
313 289 l65 62 -119 119 c-184 182 -358 295 -605 392 -162 64 -304 102 -470
126 -25 4 -56 9 -70 12 -66 12 -491 10 -585 -3z"/>
<path d="M5298 4555 c-2 -1 -39 -5 -83 -8 -175 -12 -392 -71 -564 -153 -168
-79 -293 -167 -420 -293 -234 -234 -373 -526 -408 -860 -14 -132 -5 -396 17
-470 5 -17 9 -34 9 -36 -1 -15 15 -79 37 -150 84 -271 284 -540 534 -717 224
-158 473 -252 760 -285 143 -17 460 -8 575 17 22 5 56 12 75 15 65 11 268 84
352 125 427 213 710 582 794 1038 2 12 7 34 10 50 10 47 12 364 3 432 -16 115
-20 140 -39 210 -113 434 -432 787 -870 962 -119 48 -266 88 -380 103 -25 4
-58 9 -75 12 -30 5 -322 12 -327 8z m268 -704 c176 -34 336 -138 442 -286 47
-67 104 -199 117 -275 3 -16 8 -45 12 -62 9 -46 9 -262 -1 -328 -22 -160 -97
-318 -198 -422 -140 -143 -309 -214 -519 -216 -217 -2 -392 68 -537 215 -144
147 -213 332 -215 578 -1 251 67 446 208 591 170 177 434 255 691 205z"/>
</g>
</svg>
